<svg width="22" height="22" viewBox="0 0 22 22" fill="none" xmlns="http://www.w3.org/2000/svg">
<g clip-path="url(#clip0_4006_401)" filter="url(#filter0_d_4006_401)">
<path d="M17.3908 5.88414L13.5355 5.51959C13.2924 5.49749 13.0824 5.34283 12.9831 5.11084L11.6022 1.76357C11.3813 1.21122 10.5968 1.21122 10.3759 1.76357L9.00601 5.11084C8.91764 5.34283 8.69669 5.49749 8.45365 5.51959L4.59818 5.88414C4.02373 5.93938 3.79174 6.65744 4.22258 7.04409L7.12799 9.59597C7.31579 9.76168 7.39312 10.0047 7.33789 10.2477L6.46516 13.8269C6.33259 14.3904 6.94019 14.8543 7.44836 14.5561L10.6631 12.667C10.873 12.5454 11.1271 12.5454 11.337 12.667L14.5518 14.5561C15.06 14.8543 15.6676 14.4015 15.5349 13.8269L14.6732 10.2477C14.618 10.0047 14.6953 9.76168 14.8831 9.59597L17.7885 7.04409C18.2083 6.65744 17.9653 5.93938 17.3908 5.88414Z" fill="#00D7FF"/>
</g>
<defs>
<filter id="filter0_d_4006_401" x="0" y="0" width="22" height="22" filterUnits="userSpaceOnUse" color-interpolation-filters="sRGB">
<feFlood flood-opacity="0" result="BackgroundImageFix"/>
<feColorMatrix in="SourceAlpha" type="matrix" values="0 0 0 0 0 0 0 0 0 0 0 0 0 0 0 0 0 0 127 0" result="hardAlpha"/>
<feOffset dy="3"/>
<feGaussianBlur stdDeviation="2"/>
<feColorMatrix type="matrix" values="0 0 0 0 0 0 0 0 0 0.843137 0 0 0 0 1 0 0 0 0.25 0"/>
<feBlend mode="normal" in2="BackgroundImageFix" result="effect1_dropShadow_4006_401"/>
<feBlend mode="normal" in="SourceGraphic" in2="effect1_dropShadow_4006_401" result="shape"/>
</filter>
<clipPath id="clip0_4006_401">
<rect width="14" height="14" fill="white" transform="translate(4 1)"/>
</clipPath>
</defs>
</svg>
