<svg aria-hidden="true" style="position: absolute; width: 0; height: 0; overflow: hidden;" version="1.1" xmlns="http://www.w3.org/2000/svg" xmlns:xlink="http://www.w3.org/1999/xlink">
<defs>
<symbol id="icon-save" viewBox="0 0 32 32">
<path fill="#00d7ff" style="fill: var(--color1, #00d7ff)" d="M24.889 0h-21.333c-1.973 0-3.556 1.6-3.556 3.556v24.889c0 1.956 1.582 3.556 3.556 3.556h24.889c1.956 0 3.556-1.6 3.556-3.556v-21.333l-7.111-7.111zM28.444 28.444h-24.889v-24.889h19.858l5.031 5.031v19.858zM16 16c-2.951 0-5.333 2.382-5.333 5.333s2.382 5.333 5.333 5.333 5.333-2.382 5.333-5.333c0-2.951-2.382-5.333-5.333-5.333zM5.333 5.333h16v7.111h-16v-7.111z"></path>
</symbol>
<symbol id="icon-arrow-right" viewBox="0 0 45 32">
<path fill="#00d7ff" style="fill: var(--color1, #00d7ff)" d="M30.168 31.519c-0.61 0.642-1.626 0.642-2.258 0-0.61-0.62-0.61-1.652 0-2.27l11.448-11.63h-37.778c-0.881-0.001-1.581-0.712-1.581-1.607s0.7-1.629 1.581-1.629h37.778l-11.448-11.608c-0.61-0.642-0.61-1.675 0-2.294 0.632-0.642 1.649-0.642 2.258 0l14.158 14.383c0.632 0.62 0.632 1.652 0 2.27l-14.158 14.384z"></path>
</symbol>
<symbol id="icon-award" viewBox="0 0 37 32">
<path fill="#eaeaea" style="fill: var(--color2, #eaeaea)" d="M31.275 14.942h4.946c-0.054-0.25-0.245-0.445-0.49-0.507 0.015-0.055 0.019-0.113 0.019-0.172 0-0.386-0.311-0.702-0.7-0.702-0.109 0-0.214 0.027-0.307 0.070-0.148-0.328-0.478-0.558-0.859-0.558-0.408 0-0.754 0.257-0.886 0.62-0.117-0.078-0.253-0.121-0.404-0.121-0.404 0-0.735 0.331-0.735 0.737 0 0.035 0.004 0.070 0.008 0.105-0.292 0.027-0.529 0.242-0.591 0.526z"></path>
<path fill="#eaeaea" style="fill: var(--color2, #eaeaea)" d="M2.29 16.95h5.225c-0.058-0.261-0.261-0.472-0.517-0.534 0.016-0.058 0.023-0.117 0.023-0.183 0-0.409-0.33-0.741-0.739-0.741-0.117 0-0.226 0.027-0.323 0.074-0.155-0.347-0.505-0.589-0.91-0.589-0.432 0-0.797 0.273-0.937 0.655-0.121-0.082-0.268-0.129-0.428-0.129-0.428 0-0.778 0.347-0.778 0.78 0 0.039 0.004 0.074 0.008 0.109-0.307 0.031-0.56 0.257-0.626 0.558z"></path>
<path fill="#eaeaea" style="fill: var(--color2, #eaeaea)" d="M30.637 2.893h6.225c-0.070-0.312-0.311-0.562-0.618-0.636 0.015-0.070 0.027-0.14 0.027-0.214 0-0.487-0.393-0.881-0.879-0.881-0.14 0-0.268 0.031-0.385 0.090-0.187-0.413-0.603-0.702-1.081-0.702-0.513 0-0.949 0.324-1.116 0.78-0.144-0.097-0.319-0.152-0.505-0.152-0.509 0-0.925 0.417-0.925 0.928 0 0.043 0.004 0.090 0.008 0.133-0.373 0.027-0.673 0.3-0.75 0.655z"></path>
<path fill="#eaeaea" style="fill: var(--color2, #eaeaea)" d="M0 6.028h5.669c-0.062-0.285-0.28-0.511-0.564-0.581 0.016-0.062 0.023-0.129 0.023-0.195 0-0.445-0.358-0.803-0.801-0.803-0.124 0-0.245 0.027-0.35 0.082-0.171-0.374-0.548-0.636-0.984-0.636-0.467 0-0.863 0.296-1.015 0.71-0.132-0.086-0.292-0.136-0.463-0.136-0.467 0-0.844 0.378-0.844 0.846 0 0.039 0.004 0.082 0.008 0.121-0.334 0.023-0.61 0.269-0.68 0.593z"></path>
<path fill="#eaeaea" style="fill: var(--color2, #eaeaea)" d="M0.552 30.57h4.351c-0.047-0.218-0.218-0.39-0.432-0.445 0.012-0.047 0.019-0.097 0.019-0.152 0-0.339-0.276-0.616-0.614-0.616-0.097 0-0.187 0.023-0.268 0.062-0.132-0.289-0.42-0.487-0.758-0.487-0.358 0-0.661 0.226-0.778 0.546-0.101-0.066-0.222-0.105-0.354-0.105-0.358 0-0.645 0.289-0.645 0.647 0 0.031 0.004 0.062 0.008 0.094-0.26 0.020-0.474 0.211-0.529 0.456z"></path>
<path fill="#eaeaea" style="fill: var(--color2, #eaeaea)" d="M12.286 2.078h5.517c-0.062-0.277-0.272-0.495-0.548-0.565 0.016-0.062 0.023-0.125 0.023-0.191 0-0.433-0.35-0.78-0.778-0.78-0.121 0-0.237 0.027-0.342 0.078-0.167-0.367-0.533-0.62-0.96-0.62-0.455 0-0.84 0.289-0.988 0.69-0.128-0.086-0.284-0.136-0.451-0.136-0.451 0-0.82 0.367-0.82 0.823 0 0.039 0.004 0.078 0.008 0.117-0.327 0.027-0.591 0.269-0.661 0.585z"></path>
<path fill="#eaeaea" style="fill: var(--color2, #eaeaea)" d="M32.811 29.271h4.351c-0.047-0.218-0.218-0.39-0.431-0.444 0.012-0.047 0.019-0.098 0.019-0.152 0-0.339-0.276-0.616-0.614-0.616-0.097 0-0.187 0.023-0.268 0.062-0.132-0.289-0.42-0.487-0.758-0.487-0.358 0-0.661 0.226-0.778 0.546-0.101-0.066-0.222-0.105-0.354-0.105-0.358 0-0.645 0.289-0.645 0.647 0 0.031 0.004 0.062 0.008 0.093-0.264 0.016-0.474 0.207-0.529 0.456z"></path>
<path fill="#d67412" style="fill: var(--color3, #d67412)" d="M19.078 30.605c-0.33 0.214-0.801 0.214-1.131 0l-8.67-5.623c-0.653-0.421-0.276-1.263 0.564-1.263h17.34c0.84 0 1.217 0.838 0.564 1.263l-8.666 5.623z"></path>
<path fill="#fc842c" style="fill: var(--color4, #fc842c)" d="M16.050 30.453c-0.062 0.074-0.159 0.074-0.222 0l-1.913-2.308-1.757-2.113c-0.097-0.121-0.031-0.324 0.109-0.324h7.356c0.14 0 0.21 0.207 0.109 0.324l-1.757 2.113-1.925 2.308z"></path>
<path fill="#fc842c" style="fill: var(--color4, #fc842c)" d="M20.812 30.601c-0.066 0.082-0.175 0.082-0.241 0l-2.115-2.542-1.936-2.332c-0.109-0.133-0.031-0.359 0.121-0.359h8.103c0.155 0 0.229 0.226 0.121 0.359l-1.936 2.332-2.115 2.542z"></path>
<path fill="#fc842c" style="fill: var(--color4, #fc842c)" d="M18.476 31.95c-0.054 0.066-0.14 0.066-0.194 0l-3.258-3.915c-0.089-0.105-0.027-0.289 0.097-0.289h6.516c0.124 0 0.187 0.183 0.097 0.289l-1.559 1.872-1.699 2.043z"></path>
<path fill="#f99943" style="fill: var(--color5, #f99943)" d="M22.228 26.168h-0.929c-0.109 0-0.198-0.101-0.198-0.226s0.089-0.226 0.198-0.226h0.929c0.109 0 0.198 0.101 0.198 0.226s-0.089 0.226-0.198 0.226z"></path>
<path fill="#f99943" style="fill: var(--color5, #f99943)" d="M22.846 26.168h-0.132c-0.109 0-0.198-0.101-0.198-0.226s0.089-0.226 0.198-0.226h0.132c0.109 0 0.198 0.101 0.198 0.226s-0.089 0.226-0.198 0.226z"></path>
<path fill="#f99943" style="fill: var(--color5, #f99943)" d="M18.312 26.881h-1.096c-0.128 0-0.233-0.117-0.233-0.265s0.105-0.265 0.233-0.265h1.096c0.128 0 0.233 0.117 0.233 0.265s-0.105 0.265-0.233 0.265z"></path>
<path fill="#f99943" style="fill: var(--color5, #f99943)" d="M19.044 26.881h-0.156c-0.128 0-0.233-0.117-0.233-0.265s0.105-0.265 0.233-0.265h0.156c0.128 0 0.233 0.117 0.233 0.265s-0.105 0.265-0.233 0.265z"></path>
<path fill="#f99943" style="fill: var(--color5, #f99943)" d="M18.456 30.429h-0.634c-0.074 0-0.136-0.070-0.136-0.152s0.062-0.152 0.136-0.152h0.634c0.074 0 0.136 0.070 0.136 0.152s-0.058 0.152-0.136 0.152z"></path>
<path fill="#f99943" style="fill: var(--color5, #f99943)" d="M18.88 30.429h-0.089c-0.074 0-0.136-0.070-0.136-0.152s0.062-0.152 0.136-0.152h0.089c0.074 0 0.136 0.070 0.136 0.152s-0.058 0.152-0.136 0.152z"></path>
<path fill="#f99943" style="fill: var(--color5, #f99943)" d="M15.152 26.655c0 0.187-0.132 0.335-0.299 0.335h-0.902c-0.163 0-0.299-0.152-0.299-0.335 0-0.187 0.132-0.335 0.299-0.335h0.902c0.167 0 0.299 0.148 0.299 0.335z"></path>
<path fill="#f99943" style="fill: var(--color5, #f99943)" d="M15.824 27.139c0 0.187-0.132 0.335-0.299 0.335h-0.902c-0.163 0-0.299-0.152-0.299-0.335 0-0.187 0.132-0.335 0.299-0.335h0.902c0.167 0 0.299 0.148 0.299 0.335z"></path>
<path fill="#f99943" style="fill: var(--color5, #f99943)" d="M21.022 27.408c0-0.144-0.105-0.265-0.233-0.265h-0.711c-0.128 0-0.233 0.117-0.233 0.265 0 0.144 0.105 0.265 0.233 0.265h0.711c0.128 0 0.233-0.117 0.233-0.265z"></path>
<path fill="#f99943" style="fill: var(--color5, #f99943)" d="M21.551 27.029c0-0.144-0.105-0.265-0.233-0.265h-0.708c-0.128 0-0.233 0.117-0.233 0.265 0 0.144 0.105 0.265 0.233 0.265h0.708c0.128-0.004 0.233-0.121 0.233-0.265z"></path>
<path fill="#f99943" style="fill: var(--color5, #f99943)" d="M21.263 28.32c-0.155 0-0.284 0.144-0.284 0.32 0 0.051 0.012 0.098 0.031 0.14h-0.187c-0.155 0-0.284 0.144-0.284 0.32 0 0.179 0.128 0.32 0.284 0.32h0.96l0.921-1.107h-1.442v0.008z"></path>
<path fill="#f99943" style="fill: var(--color5, #f99943)" d="M15.754 28.55h-0.187c0.019-0.043 0.031-0.090 0.031-0.14 0-0.179-0.128-0.32-0.284-0.32h-1.446l0.047 0.059 0.871 1.049h0.968c0.155 0 0.284-0.144 0.284-0.32 0-0.183-0.128-0.327-0.284-0.327z"></path>
<path fill="#f99943" style="fill: var(--color5, #f99943)" d="M18.728 28.149c0 0.167-0.121 0.3-0.268 0.3h-1.244c-0.148 0-0.268-0.137-0.268-0.3 0-0.168 0.121-0.3 0.268-0.3h1.244c0.152 0 0.268 0.133 0.268 0.3z"></path>
<path fill="#f99943" style="fill: var(--color5, #f99943)" d="M18.239 28.624c0-0.098 0.070-0.175 0.156-0.175h-0.591c0.086 0 0.156 0.078 0.156 0.175s-0.070 0.175-0.156 0.175h0.591c-0.089 0-0.156-0.078-0.156-0.175z"></path>
<path fill="#f99943" style="fill: var(--color5, #f99943)" d="M19.3 29.065c0 0.148-0.105 0.265-0.233 0.265h-1.474c-0.128 0-0.233-0.117-0.233-0.265s0.105-0.265 0.233-0.265h1.474c0.128 0 0.233 0.121 0.233 0.265z"></path>
<path fill="#bc5800" style="fill: var(--color6, #bc5800)" d="M29.362 21.836c-0.035-0.062-0.093-0.101-0.159-0.101h-21.38c-0.066 0-0.124 0.039-0.159 0.101s-0.035 0.14-0.004 0.207l1.396 2.94c0.031 0.070 0.097 0.109 0.163 0.109h18.592c0.070 0 0.132-0.043 0.163-0.109l1.396-2.94c0.027-0.066 0.023-0.144-0.008-0.207z"></path>
<path fill="#aa5000" style="fill: var(--color7, #aa5000)" d="M12.694 24.503h-1.804c-0.214 0-0.385-0.195-0.385-0.437s0.171-0.437 0.385-0.437h1.804c0.214 0 0.385 0.195 0.385 0.437s-0.171 0.437-0.385 0.437z"></path>
<path fill="#aa5000" style="fill: var(--color7, #aa5000)" d="M13.896 24.503h-0.257c-0.214 0-0.385-0.195-0.385-0.437s0.171-0.437 0.385-0.437h0.257c0.214 0 0.385 0.195 0.385 0.437s-0.171 0.437-0.385 0.437z"></path>
<path fill="#aa5000" style="fill: var(--color7, #aa5000)" d="M24.090 23.668h1.649c0.194 0 0.354 0.179 0.354 0.398s-0.159 0.398-0.354 0.398h-1.649c-0.194 0-0.354-0.179-0.354-0.398s0.159-0.398 0.354-0.398z"></path>
<path fill="#aa5000" style="fill: var(--color7, #aa5000)" d="M22.99 23.668h0.237c0.194 0 0.354 0.179 0.354 0.398s-0.159 0.398-0.354 0.398h-0.237c-0.194 0-0.354-0.179-0.354-0.398s0.159-0.398 0.354-0.398z"></path>
<path fill="#aa5000" style="fill: var(--color7, #aa5000)" d="M19.086 23.778c0 0.238-0.171 0.433-0.381 0.433h-1.069c-0.21 0-0.381-0.195-0.381-0.433s0.171-0.433 0.381-0.433h1.069c0.21 0 0.381 0.195 0.381 0.433z"></path>
<path fill="#aa5000" style="fill: var(--color7, #aa5000)" d="M20.12 24.253c0 0.246-0.179 0.448-0.397 0.448h-1.093c-0.218 0-0.397-0.199-0.397-0.448 0-0.246 0.179-0.448 0.397-0.448h1.093c0.218 0 0.397 0.203 0.397 0.448z"></path>
<path fill="#dfdfdf" style="fill: var(--color8, #dfdfdf)" d="M29.444 22.877c0 0.090-0.062 0.16-0.144 0.16h-21.819c-0.078 0-0.144-0.070-0.144-0.16v-1.798c0-0.090 0.062-0.16 0.144-0.16h21.819c0.078 0 0.144 0.070 0.144 0.16v1.798z"></path>
<path fill="#c3c3c3" style="fill: var(--color9, #c3c3c3)" d="M29.3 20.919h-0.148v1.665c0 0.090-0.062 0.16-0.144 0.16h-21.672v0.137c0 0.090 0.062 0.16 0.144 0.16h21.819c0.078 0 0.144-0.070 0.144-0.16v-1.798c0-0.094-0.066-0.164-0.144-0.164z"></path>
<path fill="#fff" style="fill: var(--color10, #fff)" d="M9.417 21.863h-1.011c-0.121 0-0.218-0.109-0.218-0.246s0.097-0.246 0.218-0.246h1.011c0.121 0 0.218 0.109 0.218 0.246s-0.097 0.246-0.218 0.246z"></path>
<path fill="#fff" style="fill: var(--color10, #fff)" d="M10.093 21.863h-0.144c-0.121 0-0.218-0.109-0.218-0.246s0.097-0.246 0.218-0.246h0.144c0.121 0 0.218 0.109 0.218 0.246-0.004 0.137-0.101 0.246-0.218 0.246z"></path>
<path fill="#eaeaea" style="fill: var(--color2, #eaeaea)" d="M21.061 28.148h5.735c-0.062-0.289-0.284-0.515-0.567-0.589 0.015-0.062 0.023-0.129 0.023-0.199 0-0.448-0.362-0.811-0.809-0.811-0.128 0-0.249 0.031-0.354 0.082-0.171-0.382-0.552-0.643-0.999-0.643-0.47 0-0.875 0.3-1.026 0.717-0.136-0.090-0.295-0.14-0.467-0.14-0.47 0-0.851 0.382-0.851 0.854 0 0.043 0.004 0.082 0.008 0.121-0.342 0.031-0.622 0.281-0.692 0.608z"></path>
<path fill="#eaeaea" style="fill: var(--color2, #eaeaea)" d="M9.77 27.31h6.839c-0.074-0.343-0.338-0.616-0.68-0.702 0.019-0.074 0.031-0.156 0.031-0.238 0-0.534-0.432-0.967-0.964-0.967-0.152 0-0.295 0.035-0.424 0.097-0.206-0.452-0.661-0.768-1.19-0.768-0.564 0-1.042 0.355-1.225 0.858-0.159-0.105-0.35-0.168-0.556-0.168-0.56 0-1.015 0.456-1.015 1.018 0 0.051 0.004 0.098 0.012 0.144-0.408 0.039-0.743 0.335-0.828 0.725z"></path>
<path fill="#00d7ff" style="fill: var(--color1, #00d7ff)" d="M18.258 20.787c4.846 0 8.775-3.94 8.775-8.801s-3.929-8.801-8.775-8.801c-4.846 0-8.775 3.94-8.775 8.801s3.929 8.801 8.775 8.801z"></path>
<path fill="#fff" style="fill: var(--color10, #fff)" d="M23.337 17.078c2.805-2.812 2.805-7.372 0-10.185s-7.351-2.813-10.155 0-2.804 7.372 0 10.185c2.804 2.813 7.351 2.813 10.155 0z"></path>
<path fill="#00d7ff" style="fill: var(--color1, #00d7ff)" d="M18.258 17.449c3.008 0 5.447-2.446 5.447-5.463s-2.439-5.463-5.447-5.463c-3.008 0-5.447 2.446-5.447 5.463s2.439 5.463 5.447 5.463z"></path>
<path fill="#fff" style="fill: var(--color10, #fff)" d="M21.055 14.79c1.544-1.549 1.544-4.059 0-5.608s-4.048-1.549-5.592 0c-1.544 1.549-1.544 4.059 0 5.608s4.048 1.549 5.592 0z"></path>
<path fill="#00d7ff" style="fill: var(--color1, #00d7ff)" d="M20.349 13.085c0.605-1.158 0.16-2.588-0.994-3.195s-2.581-0.161-3.186 0.997c-0.605 1.158-0.16 2.588 0.994 3.195s2.581 0.161 3.186-0.997z"></path>
<path fill="#fff" style="fill: var(--color10, #fff)" d="M18.411 13.264c0.704-0.084 1.206-0.724 1.122-1.43s-0.722-1.21-1.426-1.125c-0.704 0.084-1.206 0.724-1.122 1.43s0.722 1.21 1.426 1.125z"></path>
<path fill="#ff7b00" style="fill: var(--color11, #ff7b00)" d="M23.312 9.76l0.778-3.084 4.669-2.004-0.953 2.944 2.788 1.271-4.572 2.152-2.71-1.279z"></path>
<path fill="#ff9557" style="fill: var(--color12, #ff9557)" d="M18.11 12.52c-0.152-0.055-0.28-0.168-0.35-0.328-0.136-0.308 0-0.671 0.307-0.807l10.163-4.562c0.307-0.136 0.669 0 0.805 0.308s0 0.671-0.307 0.807l-10.163 4.562c-0.148 0.070-0.311 0.070-0.455 0.019z"></path>
</symbol>
<symbol id="icon-done" viewBox="0 0 45 32">
<path fill="#24d40c" style="fill: var(--color13, #24d40c)" d="M14.255 25.313l-10.691-10.030-3.564 3.343 14.255 13.373 30.545-28.657-3.564-3.343-26.982 25.313z"></path>
</symbol>
<symbol id="icon-plus" viewBox="0 0 32 32">
<path fill="#fff" style="fill: var(--color10, #fff)" d="M2.32 14.48h12.16v-12.16c0-0.839 0.681-1.52 1.52-1.52s1.52 0.681 1.52 1.52v12.16h12.16c0.839 0 1.52 0.681 1.52 1.52s-0.681 1.52-1.52 1.52h-12.16v12.16c0 0.839-0.681 1.52-1.52 1.52s-1.52-0.681-1.52-1.52v-12.16h-12.16c-0.839 0-1.52-0.681-1.52-1.52s0.681-1.52 1.52-1.52z"></path>
</symbol>
<symbol id="icon-clear" viewBox="0 0 32 32">
<path fill="#db0837" style="fill: var(--color14, #db0837)" d="M32 3.223l-3.223-3.223-12.777 12.777-12.777-12.777-3.223 3.223 12.777 12.777-12.777 12.777 3.223 3.223 12.777-12.777 12.777 12.777 3.223-3.223-12.777-12.777 12.777-12.777z"></path>
</symbol>
<symbol id="icon-calendar" viewBox="0 0 27 32">
<path fill="#00d7ff" style="fill: var(--color1, #00d7ff)" d="M9.143 14.4h-3.048v3.2h3.048v-3.2zM15.238 14.4h-3.048v3.2h3.048v-3.2zM21.333 14.4h-3.048v3.2h3.048v-3.2zM24.381 3.2h-1.524v-3.2h-3.048v3.2h-12.191v-3.2h-3.048v3.2h-1.524c-1.691 0-3.032 1.44-3.032 3.2l-0.015 22.4c0 1.76 1.356 3.2 3.048 3.2h21.333c1.676 0 3.048-1.44 3.048-3.2v-22.4c0-1.76-1.371-3.2-3.048-3.2zM24.381 28.8h-21.333v-17.6h21.333v17.6z"></path>
</symbol>
<symbol id="icon-arrow-down" viewBox="0 0 85 32">
<path fill="#00d7ff" style="fill: var(--color1, #00d7ff)" d="M42.667 32l-36.95-32h73.901l-36.95 32z"></path>
</symbol>
<symbol id="icon-star" viewBox="0 0 32 32">
<path fill="#00d7ff" style="fill: var(--color1, #00d7ff)" d="M25.296 8.559l-5.608-0.53c-0.354-0.032-0.659-0.257-0.803-0.595l-2.009-4.869c-0.321-0.803-1.462-0.803-1.784 0l-1.993 4.869c-0.129 0.337-0.45 0.562-0.803 0.595l-5.608 0.53c-0.836 0.080-1.173 1.125-0.546 1.687l4.226 3.712c0.273 0.241 0.386 0.595 0.305 0.948l-1.269 5.206c-0.193 0.82 0.691 1.494 1.43 1.061l4.676-2.748c0.305-0.177 0.675-0.177 0.98 0l4.676 2.748c0.739 0.434 1.623-0.225 1.43-1.061l-1.253-5.206c-0.080-0.353 0.032-0.707 0.305-0.948l4.226-3.712c0.611-0.562 0.257-1.607-0.578-1.687z"></path>
</symbol>
<symbol id="icon-logout" viewBox="0 0 41 32">
<path d="M34.985 14.899h-21.808c-1.040 0-1.882 0.827-1.882 1.847s0.843 1.847 1.882 1.847h21.808l-2.434 2.388c-0.735 0.721-0.735 1.89 0 2.612s1.927 0.721 2.662 0l5.647-5.54c0.044-0.043 0.085-0.087 0.124-0.134 0.010-0.011 0.018-0.024 0.027-0.035 0.029-0.036 0.057-0.072 0.083-0.11 0.008-0.011 0.014-0.023 0.021-0.034 0.026-0.040 0.051-0.080 0.074-0.121 0.004-0.008 0.008-0.017 0.012-0.025 0.024-0.045 0.047-0.091 0.066-0.138 0.003-0.006 0.004-0.012 0.007-0.018 0.020-0.050 0.039-0.1 0.055-0.152 0.002-0.007 0.003-0.013 0.005-0.020 0.015-0.051 0.029-0.102 0.040-0.155 0.003-0.016 0.005-0.032 0.007-0.048 0.008-0.044 0.016-0.087 0.020-0.132 0.006-0.061 0.010-0.122 0.010-0.184s-0.003-0.123-0.010-0.184c-0.004-0.045-0.012-0.089-0.020-0.133-0.003-0.015-0.004-0.031-0.007-0.046-0.011-0.053-0.025-0.105-0.040-0.156-0.002-0.006-0.003-0.012-0.005-0.018-0.016-0.052-0.035-0.103-0.056-0.153-0.002-0.005-0.004-0.011-0.006-0.017-0.020-0.048-0.043-0.094-0.067-0.139-0.004-0.008-0.008-0.016-0.012-0.024-0.023-0.042-0.049-0.082-0.075-0.122-0.007-0.011-0.013-0.022-0.020-0.033-0.026-0.038-0.054-0.074-0.083-0.11-0.009-0.012-0.017-0.024-0.027-0.035-0.039-0.047-0.080-0.091-0.124-0.134l-5.647-5.54c-0.367-0.361-0.849-0.541-1.331-0.541s-0.964 0.18-1.331 0.541c-0.735 0.721-0.735 1.89 0 2.612l2.434 2.388z"></path>
<path d="M15.398 31.852c5.138 0 9.919-2.501 12.788-6.689 0.58-0.846 0.35-1.994-0.512-2.563s-2.032-0.344-2.612 0.503c-2.169 3.166-5.781 5.056-9.663 5.056-6.414-0-11.633-5.12-11.633-11.413s5.219-11.413 11.633-11.413c3.871 0 7.477 1.882 9.648 5.033 0.582 0.845 1.752 1.067 2.613 0.496s1.088-1.719 0.506-2.564c-2.871-4.17-7.644-6.659-12.767-6.659-8.49 0-15.398 6.777-15.398 15.107s6.907 15.107 15.398 15.107z"></path>
</symbol>
</defs>
</svg>
